<svg width="18" height="18" viewBox="0 0 18 18" fill="none" xmlns="http://www.w3.org/2000/svg">
<rect x="17.5477" y="0.394531" width="17.5518" height="17.5518" rx="8.77588" transform="rotate(90 17.5477 0.394531)" fill="white"/>
<path d="M6.87927 8.15479C6.36365 7.52197 6.07068 7.01221 6.07068 6.43213C6.07068 5.37744 6.92029 4.61572 8.16248 4.61572C9.46912 4.61572 10.3304 5.31885 10.3304 6.36182C10.3304 7.20557 9.7738 7.76221 8.67224 8.35986C8.63708 8.37744 8.63123 8.4126 8.65466 8.44189L10.3832 10.6099C10.4066 10.6392 10.4418 10.6392 10.4652 10.604C10.8695 9.99463 11.1332 9.22119 11.1976 8.33057C11.2035 8.28955 11.2269 8.27197 11.2621 8.27197H12.3519C12.3871 8.27197 12.4105 8.29541 12.4047 8.33057C12.3344 9.59619 11.8949 10.7153 11.2152 11.5767C11.1918 11.606 11.1918 11.6353 11.2152 11.6587L12.3578 13.1001C12.3871 13.1411 12.3695 13.1704 12.3226 13.1704H10.9398C10.9105 13.1704 10.8812 13.1587 10.8636 13.1353L10.348 12.4907C10.3246 12.4614 10.2953 12.4556 10.266 12.479C9.51599 13.0122 8.61365 13.3228 7.61755 13.3228C5.8363 13.3228 4.68201 12.4146 4.68201 10.9497C4.68201 9.64893 5.58435 8.9751 6.8324 8.1958C6.86755 8.17236 6.88513 8.16064 6.87927 8.15479ZM6.03552 10.8325C6.03552 11.7173 6.67419 12.1919 7.7406 12.1919C8.37927 12.1919 9.00623 11.9751 9.54529 11.5825C9.57458 11.5591 9.58044 11.5298 9.55701 11.5005L7.57654 9.02197C7.5531 8.99268 7.5238 8.99268 7.48865 9.01611C6.66248 9.54346 6.03552 9.94189 6.03552 10.8325ZM7.33044 6.33838C7.33044 6.70752 7.5824 7.08838 7.81091 7.38135L7.95154 7.56299C7.97498 7.59229 8.00427 7.59229 8.03357 7.57471C8.72498 7.15283 9.0824 6.81299 9.0824 6.29736C9.0824 5.85791 8.72498 5.52979 8.22693 5.52979C7.68201 5.52979 7.33044 5.86377 7.33044 6.33838Z" fill="#004097"/>
</svg>
