<svg width="23" height="22" viewBox="0 0 23 22" fill="none" xmlns="http://www.w3.org/2000/svg">
<path fill-rule="evenodd" clip-rule="evenodd" d="M22.4795 12.8918C22.9004 12.5173 22.9004 11.9101 22.4795 11.5356C22.0585 11.1611 21.376 11.1611 20.955 11.5356L12.8797 18.72L12.8797 0.958985C12.8797 0.429352 12.3971 -4.54515e-07 11.8018 -4.80537e-07C11.2064 -5.06559e-07 10.7238 0.429352 10.7238 0.958985L10.7238 18.7317L2.63529 11.5356C2.21434 11.1611 1.53183 11.1611 1.11088 11.5356C0.689929 11.9101 0.689929 12.5173 1.11088 12.8918L11.033 21.7191C11.2351 21.899 11.5093 22 11.7952 22C12.081 22 12.3552 21.899 12.5574 21.7191L22.4795 12.8918Z" fill="black"/>
</svg>
