<svg width="20" height="21" viewBox="0 0 20 21" fill="none" xmlns="http://www.w3.org/2000/svg">
<path d="M13.675 0.000960211C14.0799 0.0256533 14.3923 0.364025 14.3815 0.766212V1.84494C17.5981 2.1492 19.2435 3.88254 19.2435 6.99887V15.6195C19.2435 19.0862 17.2169 20.8472 13.2288 20.8472H6.01477C2.02661 20.8472 0 19.0862 0 15.6195V6.99887C0 4.92439 0.725119 3.43999 2.21254 2.57331L2.31688 2.51534C2.5325 2.41721 2.78539 2.42621 2.9956 2.54519C3.24083 2.68401 3.38565 2.94858 3.36943 3.22817C3.35321 3.50775 3.17874 3.7541 2.91907 3.8641C1.93365 4.43574 1.46883 5.43149 1.46883 6.99887V7.27547H15.0323C15.4379 7.27547 15.7667 7.60157 15.7667 8.00384C15.7667 8.40611 15.4379 8.73221 15.0323 8.73221H1.46883V15.6195C1.46883 18.2656 2.78892 19.3628 6.01477 19.3812H13.2288C16.4081 19.3812 17.7654 18.2564 17.7654 15.6103V6.98965C17.7654 4.68467 16.7335 3.56906 14.3815 3.30169V4.0024C14.3273 4.37589 13.9976 4.64854 13.6174 4.63431C13.2372 4.62008 12.9291 4.32356 12.9034 3.94708V0.701673L12.917 0.586386C12.9473 0.435309 13.0253 0.296547 13.1414 0.191182C13.2864 0.0594758 13.4786 -0.00904568 13.675 0.000960211ZM14.098 14.7984L14.2164 14.8058C14.4194 14.8306 14.6097 14.9214 14.7567 15.0657C14.9331 15.2388 15.0323 15.4748 15.0323 15.7209C15.0323 16.2301 14.6161 16.6429 14.1026 16.6429C13.5892 16.6429 13.173 16.2301 13.173 15.7209C13.173 15.2117 13.5892 14.7989 14.1026 14.7989L14.098 14.7984ZM9.64036 14.7989L9.75697 14.8061C10.2154 14.863 10.57 15.2509 10.57 15.7209C10.57 16.2301 10.1538 16.6429 9.64036 16.6429C9.12694 16.6429 8.71072 16.2301 8.71072 15.7209C8.71072 15.2117 9.12694 14.7989 9.64036 14.7989ZM5.18293 14.7984L5.30115 14.8058C5.50414 14.8306 5.6945 14.9214 5.84146 15.0657C6.01782 15.2388 6.11703 15.4748 6.11703 15.7209C6.11703 16.2301 5.70081 16.6429 5.18739 16.6429C4.67396 16.6429 4.25775 16.2301 4.25775 15.7209C4.25775 15.2117 4.67396 14.7989 5.18739 14.7989L5.18293 14.7984ZM14.098 11.0646L14.2164 11.0717C14.4194 11.0965 14.6097 11.1873 14.7567 11.3316C14.9331 11.5048 15.0323 11.7407 15.0323 11.9868C15.0323 12.496 14.6161 12.9088 14.1026 12.9088C13.5892 12.9088 13.173 12.496 13.173 11.9868C13.173 11.4776 13.5892 11.0648 14.1026 11.0648L14.098 11.0646ZM9.64036 11.0648L9.75697 11.072C10.2154 11.1289 10.57 11.5168 10.57 11.9868C10.57 12.496 10.1538 12.9088 9.64036 12.9088C9.12694 12.9088 8.71072 12.496 8.71072 11.9868C8.71072 11.4776 9.12694 11.0648 9.64036 11.0648ZM5.18293 11.0646L5.30115 11.0717C5.50414 11.0965 5.6945 11.1873 5.84146 11.3316C6.01782 11.5048 6.11703 11.7407 6.11703 11.9868C6.11703 12.496 5.70081 12.9088 5.18739 12.9088C4.67396 12.9088 4.25775 12.496 4.25775 11.9868C4.25775 11.4776 4.67396 11.0648 5.18739 11.0648L5.18293 11.0646ZM5.60108 0.110956C5.97969 0.110956 6.29788 0.393059 6.34014 0.766212V1.77118H10.5421C10.9477 1.77118 11.2765 2.09729 11.2765 2.49956C11.2765 2.90182 10.9477 3.22793 10.5421 3.22793H6.32155V3.9563C6.32156 4.15108 6.24291 4.33776 6.10317 4.47463C5.96342 4.61149 5.77422 4.68714 5.57784 4.68467L5.47045 4.67421C5.12054 4.61425 4.85727 4.30958 4.86195 3.94708V0.766212L4.88271 0.657189C4.96852 0.33946 5.26032 0.110956 5.60108 0.110956Z" fill="#887DFD"/>
</svg>
