<svg width="262" height="23" viewBox="0 0 262 23" fill="none" xmlns="http://www.w3.org/2000/svg">
<path d="M15.6344 16.744L12.3518 13.4421C12.2318 13.3214 12.0902 13.2995 12.0138 13.2995C11.9375 13.2995 11.7956 13.3214 11.6758 13.4421L8.38234 16.755C8.01145 17.1279 7.43357 17.7313 5.5033 17.7313L9.54915 21.7899C10.1626 22.4061 10.9942 22.7523 11.8611 22.7523C12.7281 22.7523 13.5596 22.4061 14.173 21.7899L18.2298 17.7203C17.2375 17.7203 16.4086 17.5228 15.6344 16.744ZM8.38234 6.81651L11.6758 10.1293C11.7629 10.2171 11.8938 10.2719 12.0138 10.2719C12.1338 10.2719 12.2646 10.2171 12.3518 10.1293L15.6126 6.84943C16.3868 6.03768 17.2701 5.8512 18.2625 5.8512L14.2058 1.78152C13.5923 1.16524 12.7608 0.819092 11.8938 0.819092C11.0268 0.819092 10.1953 1.16524 9.58188 1.78152L5.53602 5.84023C7.45539 5.84023 8.04417 6.47647 8.38234 6.81651Z" fill="#959A9E"/>
<path d="M21.8068 9.42683L19.3531 6.94773H17.979C17.3901 6.94773 16.8011 7.18906 16.3977 7.61686L13.126 10.9077C12.8207 11.2149 12.4173 11.3684 12.0138 11.3684C11.5982 11.3626 11.2006 11.1978 10.9014 10.9077L7.60792 7.58395C7.19354 7.16711 6.62642 6.92578 6.02673 6.92578H4.42357L1.92633 9.44877C1.3136 10.0658 0.969482 10.9022 0.969482 11.7743C0.969482 12.6464 1.3136 13.4828 1.92633 14.0998L4.42357 16.6228H6.03764C6.62643 16.6228 7.19354 16.3814 7.61884 15.9646L10.9123 12.6519C11.2176 12.3447 11.6212 12.1912 12.0247 12.1912C12.4282 12.1912 12.8316 12.3447 13.1369 12.6519L16.4195 15.9536C16.8339 16.3705 17.401 16.6119 18.0008 16.6119H19.3749L21.8285 14.1327C22.4438 13.5046 22.7869 12.657 22.7828 11.7753C22.7787 10.8935 22.4278 10.0492 21.8068 9.42683Z" fill="#959A9E"/>
<path d="M80.2901 18.8653L79.8707 16.7515H75.1743L74.4277 18.8502L70.6635 18.8577C72.4552 14.5236 74.2506 10.1909 76.0498 5.85989C76.3573 5.12527 76.8999 4.75138 77.7017 4.75512C78.3137 4.76077 79.3139 4.76077 80.7009 4.757L83.6108 18.8596L80.2901 18.8653ZM76.2312 13.8562H79.2573L78.1267 8.55791L76.2312 13.8562ZM51.9699 4.75324L55.7542 4.757L49.9041 18.8671L46.0731 18.8634C45.1098 15.1364 44.1583 11.4062 43.219 7.67298C43.0321 6.92895 42.6624 6.40851 41.9508 6.16239C40.8996 5.80808 39.8434 5.4686 38.7828 5.14405V4.75889H44.8291C45.8751 4.75889 46.4858 5.26806 46.682 6.31269C46.8799 7.35921 47.3768 10.0234 48.1762 14.3053L51.9699 4.75324ZM60.9543 4.757L57.9621 18.8634L54.3608 18.8596L57.3493 4.75324L60.9543 4.757ZM68.2576 4.49585C69.3354 4.49585 70.6934 4.83404 71.4741 5.14405L70.8428 8.06942C70.1367 7.78384 68.9749 7.39866 67.9981 7.41181C66.5785 7.43624 65.7006 8.0356 65.7006 8.61052C65.7006 9.54619 67.2247 10.0178 68.7937 11.0399C70.585 12.2048 70.8203 13.2513 70.7979 14.3879C70.7737 16.7478 68.7937 19.0758 64.6172 19.0758C62.712 19.0476 62.0246 18.886 60.4705 18.3317L61.128 15.2786C62.7102 15.9455 63.3807 16.1578 64.733 16.1578C65.9714 16.1578 67.0343 15.6544 67.0435 14.777C67.051 14.1531 66.67 13.8431 65.2802 13.0728C63.8906 12.3006 61.9406 11.2315 61.9667 9.08588C61.9984 6.33899 64.5855 4.49585 68.2596 4.49585H68.2576Z" fill="#959A9E"/>
<path opacity="0.5" d="M117.094 20.6995C115.342 20.6998 113.629 20.1772 112.171 19.1981C110.713 18.2189 109.577 16.827 108.907 15.1984C108.235 13.5699 108.06 11.7777 108.401 10.0487C108.742 8.31964 109.587 6.73133 110.826 5.48462C112.065 4.2379 113.644 3.38875 115.363 3.04457C117.081 2.7004 118.863 2.87665 120.483 3.55102C122.102 4.2254 123.486 5.36763 124.46 6.83325C125.433 8.29887 125.953 10.0221 125.954 11.7849V11.7863C125.951 14.1493 125.018 16.4147 123.356 18.0857C121.695 19.7567 119.443 20.6967 117.094 20.6995Z" fill="#959A9E"/>
<path d="M108.472 20.6993C106.719 20.6993 105.007 20.1764 103.549 19.1971C102.092 18.2177 100.956 16.8257 100.285 15.197C99.6146 13.5683 99.4389 11.7761 99.7817 10.0471C100.123 8.31815 100.968 6.72996 102.206 5.48343C103.445 4.23689 105.025 3.38799 106.743 3.04407C108.462 2.70015 110.244 2.87667 111.863 3.55129C113.481 4.22591 114.866 5.36834 115.84 6.8341C116.813 8.29988 117.333 10.0231 117.333 11.786C117.331 14.1492 116.396 16.4149 114.735 18.0859C113.073 19.7569 110.821 20.6969 108.472 20.6993Z" fill="#959A9E"/>
<path d="M171.229 22.3015H144.045C143.491 22.3015 142.959 22.0799 142.566 21.6855C142.175 21.291 141.954 20.7561 141.954 20.1982V11.3499H143.46L143.8 10.5225H144.561L144.899 11.3464H147.865V10.7197L148.13 11.3507H149.668L149.933 10.7092V11.349H157.297V9.9958H157.437C157.537 9.99931 157.565 10.0081 157.565 10.1746V11.3507H161.376V11.0361C161.765 11.2351 162.224 11.3516 162.71 11.3516L162.794 11.3507H162.79H164.392L164.736 10.5269H165.497L165.831 11.3507H168.921V10.5672L169.389 11.3507H171.86V6.17636H169.414V6.78722L169.071 6.17636H166.557V6.78722L166.242 6.17636H162.846C162.332 6.15021 161.821 6.2567 161.357 6.48574L161.376 6.47784V6.17636H159.034V6.47784C158.751 6.2531 158.392 6.14558 158.032 6.17724H158.038H149.48L148.906 7.51378L148.315 6.17724H145.619V6.7881L145.323 6.17724H143.022L141.957 8.6312V3.37269C141.957 2.81484 142.177 2.27982 142.569 1.88535C142.961 1.4909 143.493 1.26929 144.048 1.26929H171.232C171.787 1.26929 172.319 1.4909 172.711 1.88535C173.103 2.27982 173.323 2.81484 173.323 3.37269V12.5576H171.691C171.665 12.5558 171.634 12.5558 171.603 12.5558C171.225 12.5558 170.875 12.6698 170.582 12.8652L170.589 12.8609V12.5576H168.175C167.798 12.5366 167.425 12.6444 167.116 12.8634L167.122 12.8599V12.5567H162.812V12.8599C162.46 12.6598 162.062 12.5553 161.656 12.5567H161.622H161.624H158.78V12.8599C158.409 12.6206 157.969 12.5141 157.529 12.5576L157.538 12.5567H154.356L153.628 13.349L152.946 12.5567H148.195V17.7345H152.857L153.608 16.93L154.315 17.7345H157.189V16.5225H157.589C157.974 16.5376 158.36 16.4729 158.72 16.3323L158.7 16.3393V17.7364H161.07V16.3876H161.183C161.328 16.3876 161.343 16.3927 161.343 16.5401V17.7373H168.546L168.634 17.739C169.046 17.739 169.431 17.6146 169.751 17.4015L169.744 17.4059V17.7373H172.028L172.137 17.739C172.565 17.739 172.972 17.6505 173.341 17.49L173.322 17.498V20.199C173.322 20.7569 173.102 21.2919 172.71 21.6863C172.317 22.0809 171.786 22.3025 171.231 22.3025L171.229 22.3015ZM160.343 17.0089H159.456V13.2972H161.491C161.859 13.263 162.229 13.3252 162.566 13.4778L162.552 13.4725C162.824 13.6233 163.006 13.9107 163.006 14.2403L163.005 14.299V14.2963V14.3297C163.005 14.7556 162.75 15.122 162.385 15.2815L162.377 15.2842C162.553 15.3472 162.699 15.455 162.808 15.5944L162.81 15.5961C162.933 15.8009 162.984 16.0412 162.955 16.2789L162.957 16.2736V17.0081H162.071V16.5435C162.114 16.2907 162.063 16.031 161.93 15.8126L161.933 15.817C161.841 15.7467 161.736 15.696 161.622 15.6678C161.51 15.6397 161.394 15.6346 161.281 15.6531L161.285 15.6523H160.343V17.0081V17.0089ZM160.343 14.0642V14.8976H161.414C161.566 14.9117 161.719 14.8844 161.856 14.8188L161.85 14.8213C161.906 14.785 161.952 14.735 161.985 14.6761C162.016 14.6171 162.033 14.5511 162.033 14.484L162.032 14.4638V14.4646C162.036 14.3976 162.022 14.3308 161.991 14.2718C161.958 14.213 161.91 14.1644 161.852 14.1316L161.85 14.1307C161.719 14.0713 161.573 14.0471 161.428 14.0606H161.433L160.343 14.0642ZM152.479 17.0081H148.988V13.2972H152.534L153.619 14.5138L154.74 13.2972H157.558C158.558 13.2972 159.044 13.6978 159.044 14.5199C159.044 15.3569 158.541 15.7636 157.51 15.7636H156.407V17.0072H154.695L153.608 15.7811L152.48 17.0081H152.479ZM155.53 13.6951L154.176 15.1588L155.53 16.6697V13.6951ZM149.868 15.4962V16.2341H152.035L153.037 15.1457L152.074 14.0642H149.866V14.7389H151.803V15.4954L149.868 15.4962ZM156.407 14.065V15.0099H157.546C157.895 15.0099 158.096 14.831 158.096 14.5191C158.096 14.2211 157.909 14.0642 157.556 14.0642L156.407 14.065ZM172.124 17.0098H170.422V16.2123H172.117C172.245 16.2298 172.372 16.1965 172.476 16.1194L172.474 16.1202C172.507 16.0896 172.534 16.0527 172.551 16.0115C172.569 15.9703 172.578 15.9259 172.578 15.881V15.8783V15.8669C172.579 15.8226 172.569 15.7787 172.551 15.7385C172.532 15.6982 172.506 15.6625 172.472 15.6337C172.381 15.5682 172.27 15.5388 172.16 15.5514H172.161L171.998 15.5461C171.202 15.5252 170.3 15.5006 170.3 14.4025C170.3 13.8678 170.633 13.2972 171.565 13.2972H173.322V14.0878H171.714C171.59 14.0739 171.464 14.099 171.355 14.1597L171.358 14.158C171.316 14.1865 171.282 14.2259 171.259 14.2725C171.236 14.3191 171.226 14.371 171.231 14.4226V14.4217V14.4314C171.231 14.4904 171.249 14.548 171.283 14.5957C171.318 14.6436 171.367 14.6794 171.422 14.6978L171.425 14.6986C171.535 14.733 171.65 14.7472 171.766 14.7408H171.763L172.241 14.7531C172.602 14.7169 172.962 14.8247 173.244 15.0536L173.241 15.0519C173.268 15.0728 173.29 15.0956 173.31 15.1211L173.312 15.122L173.322 16.5348C173.176 16.7069 172.989 16.8403 172.779 16.923C172.569 17.0056 172.343 17.0351 172.119 17.0089L172.124 17.0098ZM168.683 17.0098H166.966V16.2123H168.675C168.804 16.2291 168.933 16.1958 169.036 16.1194L169.035 16.1202C169.067 16.0896 169.093 16.0526 169.111 16.0114C169.128 15.9702 169.138 15.9257 169.138 15.881V15.8783V15.8721C169.138 15.8271 169.128 15.7825 169.11 15.7415C169.091 15.7003 169.064 15.6637 169.03 15.6337C168.938 15.5682 168.826 15.5388 168.714 15.5514H168.716L168.554 15.5461C167.76 15.5252 166.86 15.5006 166.86 14.4025C166.86 13.8678 167.19 13.2972 168.119 13.2972H169.887V14.0878H168.27C168.146 14.074 168.022 14.0991 167.914 14.1597L167.917 14.158C167.871 14.1896 167.835 14.2331 167.812 14.2839C167.788 14.3347 167.779 14.3908 167.785 14.4464C167.791 14.502 167.812 14.5548 167.845 14.5996C167.879 14.6443 167.922 14.6791 167.975 14.7005L167.976 14.7013C168.088 14.7358 168.206 14.7501 168.322 14.7434H168.319L168.794 14.7556C169.156 14.7206 169.519 14.8286 169.804 15.0572L169.801 15.0545C169.896 15.1606 169.97 15.2856 170.015 15.4215C170.06 15.5575 170.077 15.7014 170.065 15.8441V15.8398C170.066 16.6136 169.6 17.0081 168.682 17.0081L168.683 17.0098ZM166.438 17.0098H163.492V13.2964H166.435V14.0632H164.372V14.7381H166.387V15.4945H164.372V16.2324L166.438 16.236V17.0072V17.0098ZM168.153 10.6242H166.358L166.016 9.79685H164.184L163.851 10.6242H162.82C162.356 10.6488 161.9 10.5019 161.536 10.2114L161.542 10.214C161.369 10.0225 161.237 9.79699 161.156 9.55179C161.076 9.30658 161.046 9.04709 161.07 8.78984V8.79685C161.047 8.53487 161.078 8.27104 161.161 8.0214C161.243 7.77174 161.374 7.54148 161.547 7.34463L161.546 7.34638C161.729 7.18545 161.943 7.06412 162.173 6.98995C162.406 6.91576 162.649 6.89031 162.892 6.91517L162.885 6.91431H163.739V7.70571H162.902C162.78 7.68985 162.655 7.70135 162.538 7.73937C162.42 7.77739 162.312 7.84101 162.222 7.92569L162.223 7.92482C162.037 8.16479 161.947 8.46611 161.969 8.76969V8.7653C161.943 9.07719 162.029 9.38848 162.215 9.63997L162.212 9.63646C162.385 9.77885 162.607 9.84743 162.829 9.82752H162.827H163.222L164.469 6.90905H165.793L167.285 10.4147V6.90905H168.628L170.178 9.49273V6.90905H171.083V10.6181H169.825L168.152 7.83279V10.6181L168.153 10.6242ZM165.106 7.54094L164.498 9.02034H165.715L165.106 7.54094ZM156.568 10.6224H155.686V6.91167H157.714C158.085 6.87302 158.459 6.93634 158.796 7.09485L158.782 7.08959C158.918 7.16501 159.031 7.2756 159.111 7.40984C159.188 7.54408 159.23 7.69709 159.231 7.85294L159.228 7.91431V7.91167V7.93884C159.228 8.14126 159.17 8.33938 159.061 8.50945C158.952 8.67953 158.797 8.81432 158.613 8.89765L158.606 8.90027C158.782 8.96687 158.929 9.0738 159.041 9.21053L159.043 9.21228C159.167 9.41786 159.218 9.65979 159.188 9.89851L159.19 9.89326V10.6216H158.3L158.296 10.1536V10.0834C158.329 9.85461 158.278 9.62191 158.154 9.427L158.157 9.43138C158.065 9.36318 157.96 9.31406 157.848 9.28683C157.738 9.25961 157.622 9.25482 157.508 9.27275L157.514 9.27188H156.569V10.6216L156.568 10.6224ZM156.568 7.6838V8.50764H157.637C157.789 8.52413 157.942 8.49675 158.078 8.42876L158.073 8.43051C158.129 8.39638 158.175 8.34839 158.207 8.29113C158.239 8.23389 158.256 8.1693 158.256 8.10361L158.255 8.07907V8.07994C158.259 8.01335 158.245 7.94691 158.212 7.88881C158.18 7.83073 158.13 7.78353 158.072 7.75303L158.069 7.75216C157.937 7.69495 157.793 7.67088 157.648 7.68205H157.651L156.568 7.6838ZM147.231 10.6224H145.439L145.101 9.7951H143.263L142.922 10.6224H141.964L143.544 6.91167H144.853L146.353 10.4235V6.91167H147.791L148.944 9.42788L150.005 6.91167H151.473V10.6207H150.566L150.565 7.71798L149.287 10.6216H148.514L147.231 7.7136V10.6216V10.6224ZM144.178 7.54094L143.578 9.02034H144.782L144.178 7.54094ZM160.635 10.6216H159.735V6.91167H160.636V10.6207L160.635 10.6216ZM155.07 10.6216H152.13V6.91167H155.076V7.68292H153.013V8.35164H155.026V9.11324H153.012V9.85469H155.074V10.6207L155.07 10.6216Z" fill="#959A9E"/>
<path fill-rule="evenodd" clip-rule="evenodd" d="M195.982 3.2644H200.008H228.195C227.535 6.53977 226.889 9.74215 226.244 12.9319C226.108 13.6028 225.972 14.273 225.837 14.9434C225.806 15.095 225.777 15.2473 225.745 15.3998C225.575 16.2424 225.405 17.0906 225.228 17.8533C224.779 19.7917 223.115 20.3077 220.691 20.3077H189.341C189.717 18.5001 190.08 16.6531 190.445 14.7947C190.89 12.5282 191.339 10.2448 191.816 7.9954C191.876 7.71656 191.93 7.43197 191.982 7.14682C192.083 6.6086 192.185 6.06832 192.328 5.56057C192.747 4.07134 194.202 3.34921 195.982 3.2644ZM214.651 12.9735C214.526 13.9987 215.746 13.877 216.181 13.448C216.503 13.1311 216.592 12.5655 216.664 12.1069C216.667 12.0924 216.67 12.0781 216.671 12.0639C215.674 11.9409 214.754 12.1219 214.651 12.9735ZM214.708 10.5648C214.745 10.4217 214.78 10.2787 214.807 10.1262V10.1263C214.987 10.1211 215.191 10.1044 215.406 10.0869C216.391 10.0067 217.602 9.90815 217.653 10.7985C217.672 11.1282 217.594 11.486 217.514 11.8539C217.48 12.0147 217.445 12.1775 217.416 12.3407C217.412 12.3667 217.408 12.3926 217.404 12.4184C217.302 13.0182 217.208 13.5672 217.201 14.2389H216.476C216.464 13.9965 216.498 13.8005 216.534 13.6062C216.187 14.1673 215.182 14.5755 214.356 14.2193C213.927 14.034 213.703 13.3707 213.906 12.6966C214.206 11.6903 215.348 11.4556 216.751 11.5894L216.752 11.5848C216.813 11.4114 216.898 11.1772 216.848 10.9566C216.698 10.287 215.148 10.6727 214.651 10.7984C214.669 10.7196 214.688 10.6422 214.708 10.5648ZM221.223 12.8549C221.236 13.4422 221.519 13.7963 222.086 13.7841C223.117 13.7618 223.287 12.637 223.443 11.5943C223.489 11.2929 223.534 10.9983 223.598 10.7392C223.287 10.6325 222.981 10.5333 222.558 10.581C221.648 10.6835 221.201 11.8263 221.223 12.8549ZM223.676 10.1855C223.802 9.6001 223.898 8.98563 223.97 8.34679V8.3467H224.813C224.721 8.88229 224.618 9.40885 224.516 9.93539C224.246 11.3156 223.979 12.6958 223.872 14.2389H223.107C223.11 14.0735 223.134 13.9296 223.16 13.7858C223.168 13.7328 223.177 13.6799 223.185 13.6259C223.175 13.5914 223.133 13.6594 223.09 13.7292C223.069 13.7647 223.047 13.8005 223.028 13.8237C222.956 13.9155 222.844 14.0476 222.733 14.1202C222.168 14.4956 221.046 14.3889 220.654 13.9423C220.427 13.6832 220.365 13.3199 220.36 12.9537C220.338 11.0598 221.607 9.52546 223.676 10.1855ZM200.721 13.1316C200.808 13.9421 201.918 13.9495 202.368 13.4679C202.742 13.0688 203.052 12.0826 202.938 11.2928C202.804 10.3831 201.498 10.4491 201.055 10.9962C201.017 11.1848 200.985 11.3836 200.953 11.5896C200.929 11.7378 200.905 11.8897 200.878 12.0442C200.859 12.1474 200.835 12.2511 200.813 12.3546C200.753 12.617 200.694 12.8787 200.721 13.1316ZM201.075 10.4856C201.452 10.1786 202.321 9.85597 203.035 10.1262C204.505 10.6825 203.66 13.5234 202.565 14.1202C202.034 14.4095 200.776 14.5526 200.583 13.8039C200.467 14.2904 200.393 14.8188 200.318 15.3472C200.284 15.592 200.249 15.837 200.21 16.0777H199.368C199.746 14.1261 200.104 12.1545 200.407 10.1262H201.133C201.13 10.1922 201.116 10.2482 201.103 10.3042C201.09 10.3602 201.078 10.4162 201.073 10.4822L201.075 10.4856ZM201.075 10.4856C201.072 10.4874 201.07 10.4891 201.068 10.4909C201.063 10.4945 201.059 10.4982 201.055 10.5019C201.065 10.5009 201.076 10.499 201.075 10.4856ZM205.057 11.5499H207.038C207.218 10.7861 206.783 10.5378 206.175 10.5613C205.529 10.5861 205.119 11.0908 205.057 11.5499ZM204.743 10.6601C205.109 10.2712 205.624 10.0945 206.234 10.0472C206.929 9.99324 207.613 10.1385 207.804 10.6997C207.912 11.0188 207.847 11.3629 207.781 11.6967C207.76 11.8075 207.739 11.9171 207.725 12.0244C206.814 12.0008 205.869 11.9952 204.958 12.0244C204.818 12.6316 204.82 13.3303 205.253 13.6062C205.826 13.9716 206.794 13.6781 207.352 13.4679C207.338 13.5525 207.321 13.6343 207.305 13.7161C207.277 13.8529 207.249 13.9896 207.235 14.1401C205.88 14.4721 204.189 14.5213 204.037 13.1514C203.929 12.1913 204.293 11.137 204.743 10.6601ZM198.798 10.1855C198.797 10.1576 198.795 10.1296 198.818 10.1262H199.661C199.37 11.4478 199.138 12.8284 198.935 14.2389H198.091C198.36 12.9215 198.612 11.5866 198.798 10.1855ZM219.223 10.7787C219.465 10.4007 220.086 9.77032 220.831 10.146C220.798 10.2536 220.778 10.3744 220.759 10.4953C220.744 10.5781 220.732 10.6608 220.713 10.7392C219.393 10.3628 219.128 11.6146 218.948 12.756C218.925 12.8976 218.901 13.0299 218.879 13.1581C218.813 13.5142 218.755 13.8382 218.751 14.2389H217.888C218.17 12.9089 218.412 11.5385 218.614 10.1262H219.36C219.329 10.222 219.312 10.3318 219.295 10.4416C219.277 10.5599 219.258 10.6781 219.223 10.7787ZM211.276 12.4792C211.257 12.7332 211.276 13.0676 211.354 13.27C211.622 13.9668 212.774 13.8029 213.376 13.4875C213.358 13.5767 213.342 13.6692 213.326 13.7616C213.305 13.8837 213.285 14.0057 213.258 14.1202C212.156 14.5039 210.795 14.4494 210.492 13.448C210.232 12.5922 210.599 11.2321 211.159 10.6403C211.73 10.0358 212.808 9.91953 213.944 10.1065C213.933 10.1981 213.917 10.2869 213.903 10.3757C213.88 10.507 213.859 10.6383 213.846 10.7787C213.154 10.5347 212.285 10.4628 211.845 10.8974C211.526 11.2122 211.32 11.9077 211.276 12.4792ZM209.275 10.8183C209.548 10.3363 210.136 9.8218 210.884 10.1262C210.874 10.2201 210.856 10.306 210.837 10.3919C210.815 10.5021 210.792 10.6122 210.786 10.7392C209.994 10.4544 209.446 10.9765 209.236 11.5894C209.048 12.1373 208.969 12.8454 208.895 13.4975C208.867 13.7583 208.838 14.0099 208.804 14.2389H207.96C207.994 14.0598 208.028 13.881 208.062 13.7021C208.286 12.532 208.508 11.3619 208.667 10.1262H209.412C209.392 10.2174 209.377 10.3126 209.36 10.4078C209.336 10.549 209.311 10.6902 209.275 10.8183ZM196.895 10.7985C197.031 10.0262 197.166 9.25344 197.288 8.46539V8.46546H198.268C197.883 10.3439 197.557 12.2831 197.248 14.2391H196.286C196.373 13.6875 196.473 13.1506 196.575 12.6138C196.65 12.2086 196.727 11.8033 196.796 11.3918C196.082 11.3232 195.205 11.3461 194.437 11.3661C194.359 11.3682 194.283 11.3702 194.206 11.3721C194.038 12.1579 193.909 12.9862 193.781 13.8146C193.76 13.9561 193.739 14.0977 193.716 14.2391H192.756C193.016 12.9257 193.244 11.5783 193.473 10.2309C193.573 9.64146 193.672 9.05197 193.776 8.46531H194.716C194.639 8.83904 194.572 9.22356 194.504 9.60805C194.435 10.0022 194.367 10.3962 194.286 10.7786C194.957 10.8291 195.66 10.8176 196.36 10.8062C196.538 10.8033 196.717 10.8004 196.895 10.7985ZM199.818 8.46539C200.066 8.68677 199.849 9.21864 199.681 9.33534C199.574 9.40953 199.213 9.49495 199.053 9.33534C198.887 9.17146 198.985 8.73029 199.093 8.584C199.158 8.493 199.256 8.43495 199.426 8.40612C199.608 8.37492 199.74 8.39527 199.818 8.46539Z" fill="#959A9E"/>
<path d="M259.125 6.44696C259.272 5.11334 259.009 4.16573 258.255 3.30155C257.351 2.26678 255.722 1.82349 253.635 1.82349H247.58C247.373 1.82357 247.173 1.89759 247.017 2.03224C246.86 2.16689 246.757 2.35336 246.724 2.55816L244.201 18.645C244.19 18.7198 244.194 18.7962 244.214 18.869C244.234 18.9418 244.27 19.0094 244.319 19.0668C244.368 19.1244 244.429 19.1706 244.497 19.2022C244.565 19.2338 244.639 19.2502 244.715 19.2502H248.127L247.876 20.8441C247.859 20.9557 247.866 21.0699 247.896 21.1786C247.927 21.2873 247.979 21.3881 248.053 21.474C248.125 21.5599 248.216 21.6289 248.318 21.6762C248.42 21.7235 248.532 21.7481 248.644 21.7482H251.796C252.327 21.7482 252.778 21.3621 252.863 20.8379L252.894 20.676L253.488 16.8868L253.524 16.6826L253.526 16.6739C253.543 16.5706 253.594 16.4765 253.673 16.4087C253.753 16.3408 253.853 16.3036 253.957 16.3041H254.427C255.995 16.3041 257.429 15.9853 258.568 15.1709C259.037 14.8347 259.449 14.42 259.798 13.9195C260.376 13.1105 260.75 12.1726 260.887 11.1862C261.186 9.63471 261.049 8.25252 260.182 7.25884C259.914 6.95901 259.595 6.71012 259.241 6.52417L259.125 6.4482V6.44696ZM249.818 12.8063C249.942 12.7418 250.078 12.7081 250.216 12.7079H251.993C255.485 12.7079 258.217 11.2834 259.016 7.15923L259.018 7.1393C259.288 7.29371 259.514 7.4755 259.697 7.6847C260.373 8.46047 260.537 9.5961 260.254 11.0592C259.918 12.7988 259.183 13.9319 258.195 14.6379C257.202 15.3477 255.916 15.6528 254.428 15.6528H253.958C253.702 15.6525 253.452 15.7443 253.257 15.9118C253.061 16.0793 252.931 16.3115 252.89 16.5669L252.853 16.7711L252.258 20.5603L252.23 20.722L252.228 20.727C252.211 20.83 252.159 20.9237 252.079 20.9912C252.001 21.0588 251.901 21.0958 251.797 21.0957H248.645C248.625 21.0957 248.607 21.0917 248.59 21.0835C248.573 21.0756 248.557 21.0639 248.545 21.0493C248.532 21.0348 248.523 21.0177 248.518 20.9992C248.513 20.9808 248.512 20.9614 248.515 20.9425L248.773 19.2988L249.818 12.8063Z" fill="#959A9E"/>
</svg>
