<svg width="138" height="31" viewBox="0 0 138 31" fill="none" xmlns="http://www.w3.org/2000/svg">
<g clip-path="url(#clip0_2_4350)">
<path d="M36.6265 15.1334C36.6265 9.88846 39.4555 4.64355 47.2571 4.64355C55.0588 4.64355 57.9169 9.91776 57.9169 15.1334C57.9169 20.349 55.117 25.5619 47.2571 25.5619C39.3973 25.5619 36.6265 20.4662 36.6265 15.1334ZM47.2571 21.276C51.3961 21.276 52.4362 19.0278 52.4362 15.1334C52.4362 11.239 51.3935 8.95882 47.2571 8.95882C43.1208 8.95882 42.1072 11.1777 42.1072 15.1334C42.1072 19.089 43.179 21.276 47.2571 21.276Z" fill="white"/>
<path d="M76.4235 15.1334C76.4235 9.88846 79.2525 4.64355 87.0541 4.64355C94.8558 4.64355 97.7139 9.91776 97.7139 15.1334C97.7139 20.349 94.914 25.5619 87.0541 25.5619C79.1943 25.5619 76.4235 20.4662 76.4235 15.1334ZM87.0515 21.276C91.1905 21.276 92.2305 19.0278 92.2305 15.1334C92.2305 11.239 91.1878 8.95882 87.0515 8.95882C82.9151 8.95882 81.9015 11.1777 81.9015 15.1334C81.9015 19.089 82.9733 21.276 87.0515 21.276Z" fill="white"/>
<path d="M13.7456 0.0244141V7.20586L14.91 11.2148L13.7456 10.1173L6.65321 2.98117L3.71304 5.94058L10.8054 13.0794H0.775513V17.2641H10.8028L3.71039 24.403L6.65056 27.3624L13.743 20.2236V30.3191H17.9005V15.1758C17.9005 15.1758 17.9005 15.1704 17.9005 15.1678V0.0244141H13.743H13.7456Z" fill="white"/>
<path d="M71.3974 5.15137L68.4784 11.6855C68.2852 12.1517 68.0973 12.6098 67.9121 13.0707L66.4513 16.9731L66.7212 13.9364C66.4407 13.1879 66.1443 12.442 65.8294 11.6855L63.0003 5.15137H57.1041L64.5485 19.3278V25.0815H69.8175V19.3278L77.201 5.15137H71.3948H71.3974Z" fill="white"/>
<path d="M130.331 5.15137H122.262L115.503 25.0815H120.743L122.024 21.3363H130.54L131.821 25.0815H137.09L130.331 5.15137ZM122.471 19.8392L123.845 15.9448L126.282 8.80868L129.201 17.3486H124.173L122.471 19.8392Z" fill="white"/>
<path d="M27.9175 20.9154L27.0972 23.9734L27.1051 20.7103V5.15137H21.8043V25.0815H36.0076V20.9154H27.9175Z" fill="white"/>
<path d="M106.259 20.9154L105.438 23.9734L105.446 20.4306V5.15137H100.146V25.0815H114.349V20.9154H106.259Z" fill="white"/>
<path d="M136.997 6.77483C136.997 7.69382 136.285 8.41569 135.372 8.41569C134.459 8.41569 133.758 7.69382 133.758 6.78548C133.758 5.87715 134.462 5.15527 135.383 5.15527C136.304 5.15527 136.997 5.8585 136.997 6.77749V6.77483ZM136.822 6.77483C136.822 5.95173 136.209 5.32309 135.38 5.32309C134.552 5.32309 133.925 5.96505 133.925 6.78282C133.925 7.60059 134.549 8.24255 135.37 8.24255C136.19 8.24255 136.82 7.59526 136.82 6.77483H136.822ZM135.782 7.05186L136.214 7.71779H135.965L135.565 7.09448C135.528 7.09981 135.497 7.0998 135.46 7.0998H134.981V7.71779H134.742V5.85051H135.46C135.915 5.85051 136.193 6.09025 136.193 6.4685C136.193 6.75618 136.042 6.95863 135.78 7.05186H135.782ZM135.96 6.4685C135.96 6.20479 135.772 6.05295 135.446 6.05295H134.978V6.8947H135.446C135.772 6.8947 135.96 6.73754 135.96 6.4685Z" fill="white"/>
</g>
<defs>
<clipPath id="clip0_2_4350">
<rect width="136.314" height="30.2921" fill="white" transform="translate(0.775635 0.0244141)"/>
</clipPath>
</defs>
</svg>
