<svg width="24" height="24" viewBox="0 0 24 24" fill="none" xmlns="http://www.w3.org/2000/svg">
<path
            d="M0.612839 14.5433L2.56617 16.3964C2.70326 16.5264 2.88917 16.5995 3.08302 16.5995C3.27686 16.5995 3.46277 16.5264 3.59986 16.3964C3.803 16.2026 4.04464 16.0489 4.31079 15.9443C4.57694 15.8397 4.86232 15.7863 5.15039 15.787C6.35989 15.787 7.34351 16.7203 7.34351 17.868C7.34421 18.1414 7.28779 18.4122 7.17749 18.6648C7.06719 18.9174 6.90522 19.1468 6.70092 19.3396C6.56388 19.4697 6.48689 19.6461 6.48689 19.83C6.48689 20.0139 6.56388 20.1903 6.70092 20.3204L8.65426 22.1735C8.79718 22.3091 8.98396 22.3767 9.1711 22.3767C9.35825 22.3767 9.54539 22.3091 9.68795 22.1735L23.5777 8.99406C23.6457 8.92974 23.6997 8.85331 23.7365 8.76916C23.7734 8.685 23.7923 8.59477 23.7923 8.50364C23.7923 8.41252 23.7734 8.32229 23.7365 8.23813C23.6997 8.15398 23.6457 8.07755 23.5777 8.01323L21.6243 6.16013C21.4872 6.03009 21.3013 5.95704 21.1075 5.95704C20.9136 5.95704 20.7277 6.03009 20.5906 6.16013C20.3875 6.35395 20.1459 6.50761 19.8797 6.61221C19.6136 6.71681 19.3282 6.77027 19.0401 6.76951C17.8306 6.76951 16.847 5.83619 16.847 4.68854C16.847 4.13258 17.0755 3.61025 17.4896 3.21695C17.6266 3.08687 17.7036 2.91047 17.7036 2.72654C17.7036 2.54261 17.6266 2.3662 17.4896 2.23612L15.5363 0.383024C15.3992 0.252984 15.2133 0.179932 15.0194 0.179932C14.8256 0.179932 14.6397 0.252984 14.5026 0.383024L0.612839 13.5625C0.544805 13.6268 0.490822 13.7032 0.453988 13.7874C0.417154 13.8715 0.398193 13.9618 0.398193 14.0529C0.398193 14.144 0.417154 14.2342 0.453988 14.3184C0.490822 14.4026 0.544805 14.479 0.612839 14.5433ZM9.90214 6.70985L10.4819 7.25992C10.6244 7.39553 10.8116 7.46316 10.9987 7.46316C11.1858 7.46316 11.373 7.39553 11.5155 7.25992C11.6526 7.12984 11.7296 6.95344 11.7296 6.76951C11.7296 6.58557 11.6526 6.40917 11.5155 6.27909L10.9358 5.72902L15.0194 1.85427L15.9902 2.77509C15.5937 3.3422 15.3831 4.008 15.3849 4.68854C15.3849 6.60095 17.0246 8.15682 19.0401 8.15682C19.7572 8.1587 20.4588 7.95897 21.0563 7.58282L22.0268 8.50364L17.9436 12.3784L17.3638 11.8283C17.2964 11.7621 17.2157 11.7092 17.1266 11.6729C17.0374 11.6365 16.9414 11.6174 16.8444 11.6166C16.7473 11.6158 16.651 11.6333 16.5612 11.6682C16.4714 11.7031 16.3897 11.7546 16.3211 11.8197C16.2525 11.8849 16.1982 11.9623 16.1614 12.0476C16.1247 12.1328 16.1062 12.2241 16.107 12.3163C16.1079 12.4084 16.128 12.4994 16.1663 12.584C16.2046 12.6686 16.2603 12.7452 16.3302 12.8092L16.9099 13.3592L9.1711 20.7023L8.20028 19.7814C8.59676 19.2143 8.80738 18.5485 8.80558 17.868C8.80558 15.9556 7.16586 14.3997 5.15039 14.3997C4.43332 14.3978 3.73173 14.5976 3.13419 14.9737L2.16374 14.0529L9.90214 6.70985Z"
            fill="#6A453F"
          />
</svg>