<svg width="20" height="20" viewBox="0 0 20 20" fill="none" xmlns="http://www.w3.org/2000/svg">
<path d="M13.9799 11.5143C13.7884 11.4185 12.5436 10.844 12.3521 10.7482C12.1606 10.6525 11.9691 10.6525 11.7776 10.844C11.5861 11.0355 11.2031 11.61 11.0116 11.8015C10.9158 11.993 10.7243 11.993 10.5328 11.8973C9.86252 11.61 9.19225 11.227 8.61774 10.7482C8.13897 10.2695 7.66021 9.69495 7.2772 9.12044C7.18145 8.92893 7.2772 8.73743 7.37295 8.64167C7.4687 8.54592 7.56446 8.35442 7.75596 8.25866C7.85171 8.16291 7.94747 7.97141 7.94747 7.87565C8.04322 7.7799 8.04322 7.5884 7.94747 7.49264C7.85171 7.39689 7.37295 6.24786 7.18145 5.7691C7.08569 5.09883 6.89419 5.09883 6.70268 5.09883H6.22392C6.03241 5.09883 5.74516 5.29033 5.6494 5.38608C5.07489 5.9606 4.78763 6.63087 4.78763 7.39689C4.88338 8.25866 5.17064 9.12044 5.74516 9.88646C6.79844 11.4185 8.13897 12.6633 9.76677 13.4293C10.2455 13.6208 10.6285 13.8123 11.1073 13.9081C11.5861 14.0996 12.0648 14.0996 12.6393 14.0038C13.3096 13.9081 13.8841 13.4293 14.2671 12.8548C14.4586 12.4718 14.4586 12.0888 14.3629 11.7058L13.9799 11.5143V11.5143ZM16.3737 2.80076C12.6393 -0.933588 6.60693 -0.933588 2.87258 2.80076C-0.191505 5.86485 -0.766021 10.5567 1.34054 14.2911L0 19.1745L5.07489 17.8339C6.51118 18.5999 8.04322 18.983 9.57526 18.983C14.8417 18.983 19.0548 14.7698 19.0548 9.50345C19.1505 7.01388 18.0972 4.62006 16.3737 2.80076V2.80076ZM13.7884 16.2061C12.5436 16.9722 11.1073 17.4509 9.57526 17.4509C8.13897 17.4509 6.79844 17.0679 5.55365 16.3976L5.26639 16.2061L2.29806 16.9722L3.06408 14.0996L2.87258 13.8123C0.574516 9.98221 1.72355 5.19458 5.4579 2.80076C9.19225 0.406949 13.9799 1.65173 16.2779 5.29033C18.576 9.02468 17.5227 13.9081 13.7884 16.2061Z" fill="#00B9AF"/>
</svg>
